P2
# Test Image
2 2
255
100
150
200
240