P2
# Encrypted Image
2 2
255
165
158
196
32
